<!-- icon666.com - MILLIONS vector ICONS FREE --><svg viewBox="0 0 512 512" xmlns="http://www.w3.org/2000/svg"><path d="m436 256 45 30 31-30c0-70.304688-29.597656-134.054688-75.769531-180.230469l-53.355469-6.644531.347656 59.652344c32.589844 32.59375 52.777344 77.59375 52.777344 127.222656zm0 0" fill="#e63950"></path><path d="m512 256h-76c0 49.628906-20.1875 94.628906-52.777344 127.222656-32.59375 32.59375-77.59375 52.777344-127.222656 52.777344l-30 46 30 30c70.304688 0 134.054688-29.597656 180.230469-75.769531 46.171875-46.175781 75.769531-109.925781 75.769531-180.230469zm0 0" fill="#00c8c8"></path><path d="m436.300781 75.699219-53.101562 53.101562c-32.699219-32.703125-77.699219-52.800781-127.199219-52.800781-99.300781 0-181 80.699219-181 180s81.699219 180 181 180v76c-140.699219 0-256-115.300781-256-256s115.300781-256 256-256c70.199219 0 134.097656 29.5 180.300781 75.699219zm0 0" fill="#fdbf00" style="fill: rgb(7, 74, 207);"></path><path d="m436.300781 75.699219-53.101562 53.101562c-32.699219-32.703125-77.699219-52.800781-127.199219-52.800781v-76c70.199219 0 134.097656 29.5 180.300781 75.699219zm0 0" fill="#575f64"></path><path d="m256 61c-107.402344 0-196 87.597656-196 195 0 107.398438 88.597656 195 196 195s195-87.601562 195-195c0-107.402344-87.597656-195-195-195zm0 0" fill="#faecd8" style="fill: rgb(255, 255, 255);"></path><path d="m451 256c0 107.398438-87.597656 195-195 195v-390c107.402344 0 195 87.597656 195 195zm0 0" fill="#f4d7af" style="fill: rgb(255, 255, 255);"></path><path d="m271 346c0 8.398438-6.597656 15-15 15s-15-6.601562-15-15c0-8.402344 6.597656-15 15-15s15 6.597656 15 15zm0 0" fill="#575f64"></path><path d="m331 346c0 8.285156-6.714844 15-15 15s-15-6.714844-15-15 6.714844-15 15-15 15 6.714844 15 15zm0 0" fill="#32393f"></path><path d="m211 346c0 8.285156-6.714844 15-15 15s-15-6.714844-15-15 6.714844-15 15-15 15 6.714844 15 15zm0 0" fill="#575f64"></path><path d="m226 286h-60v-60c0-8.285156 6.714844-15 15-15h45l30 37.5zm0 0" fill="#ff637b"></path><path d="m286 181h45c8.285156 0 15 6.714844 15 15v90h-60l-30-37.5zm0 0" fill="#ff9100"></path><path d="m271 346c0 8.398438-6.597656 15-15 15v-30c8.402344 0 15 6.597656 15 15zm0 0" fill="#32393f"></path><path d="m286 136v150h-60v-150c0-8.402344 6.597656-15 15-15h30c8.402344 0 15 6.597656 15 15zm0 0" fill="#64e1dc"></path><path d="m286 136v150h-30v-165h15c8.402344 0 15 6.597656 15 15zm0 0" fill="#00c8c8"></path><path d="m376 286c0 8.398438-6.597656 15-15 15h-210c-8.402344 0-15-6.601562-15-15 0-8.402344 6.597656-15 15-15h210c8.402344 0 15 6.597656 15 15zm0 0" fill="#575f64"></path><path d="m376 286c0 8.398438-6.597656 15-15 15h-105v-30h105c8.402344 0 15 6.597656 15 15zm0 0" fill="#32393f"></path></svg>