<!-- icon666.com - MILLIONS vector ICONS FREE --><svg viewBox="0 0 128 128" xmlns="http://www.w3.org/2000/svg"><g><rect fill="#894ba2" height="76.125" rx="5" width="124.5" x="1.75" y="9.372" style="fill: rgb(0, 0, 0);"></rect><path d="m9.75 17.372h108.5v60.125h-108.5z" fill="#eee"></path><path d="m45.25 85.497h37.5v23.384h-37.5z" fill="#ffdb56" style="fill: rgb(7, 74, 207);"></path><path d="m53.25 93.497h21.5v7.384h-21.5z" fill="#f77935" style="fill: rgb(255, 0, 0);"></path><g fill="#808080"><path d="m85.719 118.628h-43.439c-2.968 0-5.374-1.405-5.374-4.373a5.374 5.374 0 0 1 5.374-5.374h43.439a5.374 5.374 0 0 1 5.375 5.374c0 2.968-2.406 4.373-5.375 4.373z" fill="#808080"></path><path d="m110.25 62.094h-42.25a1.75 1.75 0 0 1 0-3.5h42.25a1.75 1.75 0 0 1 0 3.5z" fill="#808080"></path><path d="m101.875 69.406h-25.5a1.75 1.75 0 0 1 0-3.5h25.5a1.75 1.75 0 0 1 0 3.5z" fill="#808080"></path><path d="m60 27.122h-42.25a1.75 1.75 0 0 1 0-3.5h42.25a1.75 1.75 0 0 1 0 3.5z" fill="#808080"></path><path d="m51.625 34.434h-25.5a1.75 1.75 0 0 1 0-3.5h25.5a1.75 1.75 0 1 1 0 3.5z" fill="#808080"></path></g><path d="m89.125 25.372a13.564 13.564 0 1 0 9.591 23.155l-9.591-9.591z" fill="#ffdb56" style="fill: rgb(7, 74, 207);"></path><path d="m102.689 38.936a13.564 13.564 0 0 0 -13.564-13.564v13.564l9.591 9.591a13.521 13.521 0 0 0 3.973-9.591z" fill="#3fc8f2"></path><path d="m20.734 55.266h7v13.675h-7z" fill="#00d9c0"></path><path d="m35.375 41.813h7v27.128h-7z" fill="#ffdb56" style="fill: rgb(7, 74, 207);"></path><path d="m50.016 47.566h7v21.375h-7z" fill="#3fc8f2"></path><path d="m60 70.691h-42.25a1.75 1.75 0 0 1 0-3.5h42.25a1.75 1.75 0 0 1 0 3.5z" fill="#808080"></path></g></svg>