<?xml version="1.0" encoding="UTF-8" standalone="no"?>
<!-- Created with Inkscape (http://www.inkscape.org/) -->

<svg
   width="62.608265mm"
   height="13.763671mm"
   viewBox="0 0 62.608265 13.763671"
   version="1.1"
   id="svg1"
   xml:space="preserve"
   sodipodi:docname="Logo1.svg"
   xmlns:inkscape="http://www.inkscape.org/namespaces/inkscape"
   xmlns:sodipodi="http://sodipodi.sourceforge.net/DTD/sodipodi-0.dtd"
   xmlns:xlink="http://www.w3.org/1999/xlink"
   xmlns="http://www.w3.org/2000/svg"
   xmlns:svg="http://www.w3.org/2000/svg"><sodipodi:namedview
     id="namedview1"
     pagecolor="#ffffff"
     bordercolor="#000000"
     borderopacity="0.25"
     inkscape:showpageshadow="2"
     inkscape:pageopacity="0.0"
     inkscape:pagecheckerboard="0"
     inkscape:deskcolor="#d1d1d1"
     inkscape:document-units="mm"
     showgrid="false" /><defs
     id="defs1"><linearGradient
       inkscape:collect="always"
       xlink:href="#linear-gradient"
       id="linearGradient18"
       gradientUnits="userSpaceOnUse"
       x1="-8.3620005"
       y1="44.362"
       x2="52.007"
       y2="-16.007" /><linearGradient
       id="linear-gradient"
       x1="-8.3620005"
       y1="44.362"
       x2="52.007"
       y2="-16.007"
       gradientUnits="userSpaceOnUse"><stop
         offset="0"
         stop-color="#003f8a"
         id="stop1" /><stop
         offset="0.518"
         stop-color="#00d7df"
         id="stop2" /><stop
         offset="1"
         stop-color="#006df0"
         id="stop3" /></linearGradient><linearGradient
       id="linear-gradient-2"
       x1="-1.362"
       y1="51.362"
       x2="59.007"
       y2="-9.007"
       xlink:href="#linear-gradient" /><linearGradient
       id="linear-gradient-3"
       x1="6.3280001"
       y1="59.051998"
       x2="66.696999"
       y2="-1.317"
       xlink:href="#linear-gradient" /><linearGradient
       id="linear-gradient-4"
       x1="0.38800001"
       y1="53.112"
       x2="60.757"
       y2="-7.257"
       xlink:href="#linear-gradient" /><linearGradient
       id="linear-gradient-5"
       x1="4.638"
       y1="57.362"
       x2="65.007004"
       y2="-3.007"
       xlink:href="#linear-gradient" /><linearGradient
       id="linear-gradient-6"
       x1="12.141"
       y1="64.865997"
       x2="72.511002"
       y2="4.4959998"
       xlink:href="#linear-gradient" /><linearGradient
       id="linear-gradient-7"
       x1="-4.612"
       y1="48.112"
       x2="55.757"
       y2="-12.257"
       xlink:href="#linear-gradient" /><linearGradient
       id="linear-gradient-8"
       x1="-3.112"
       y1="49.612"
       x2="57.257"
       y2="-10.757"
       xlink:href="#linear-gradient" /><linearGradient
       id="linear-gradient-9"
       x1="-7.862"
       y1="44.862"
       x2="52.507"
       y2="-15.507"
       xlink:href="#linear-gradient" /><linearGradient
       id="linear-gradient-10"
       x1="9.6379995"
       y1="62.362"
       x2="70.007004"
       y2="1.993"
       xlink:href="#linear-gradient" /><linearGradient
       id="linear-gradient-11"
       x1="-7.362"
       y1="45.362"
       x2="53.007"
       y2="-15.007"
       xlink:href="#linear-gradient" /><linearGradient
       id="linear-gradient-12"
       x1="5.4699998"
       y1="58.194"
       x2="65.839996"
       y2="-2.175"
       xlink:href="#linear-gradient" /><linearGradient
       id="linear-gradient-13"
       x1="8.6379995"
       y1="61.362"
       x2="69.007004"
       y2="0.99299997"
       xlink:href="#linear-gradient" /><linearGradient
       id="linear-gradient-14"
       x1="26.388"
       y1="79.112"
       x2="86.757004"
       y2="18.743"
       xlink:href="#linear-gradient" /><linearGradient
       id="linear-gradient-15"
       x1="-1.862"
       y1="50.862"
       x2="58.507"
       y2="-9.507"
       xlink:href="#linear-gradient" /><linearGradient
       id="linear-gradient-16"
       x1="21.138"
       y1="73.862"
       x2="81.507004"
       y2="13.493"
       xlink:href="#linear-gradient" /></defs><g
     inkscape:label="Capa 1"
     inkscape:groupmode="layer"
     id="layer1"
     transform="translate(-38.180169,-85.231382)"><g
       id="g22"
       transform="matrix(4.7633793,0,0,4.4159428,-4.3923833,-11.113617)"><g
         id="Ai-7"
         data-name="Ai"
         transform="matrix(0.05802214,0,0,0.04806981,9.8877006,21.847712)"
         inkscape:export-filename="Logo_Tech.svg"
         inkscape:export-xdpi="1525.1827"
         inkscape:export-ydpi="1525.1827"><path
           d="m 20,19 a 3,3 0 0 1 -3,-3 1,1 0 0 0 -2,0 5.006,5.006 0 0 0 5,5 1,1 0 0 0 0,-2 z"
           style="fill:url(#linearGradient18)"
           id="path3" /><path
           d="m 10,35 a 1,1 0 0 0 0,2 3,3 0 0 1 3,3 1,1 0 0 0 2,0 5.006,5.006 0 0 0 -5,-5 z"
           style="fill:url(#linear-gradient-2)"
           id="path4" /><path
           d="m 20,45 a 4,4 0 0 0 -4,4 1,1 0 0 0 2,0 2,2 0 0 1 2,-2 1,1 0 0 0 0,-2 z"
           style="fill:url(#linear-gradient-3)"
           id="path5" /><path
           d="m 23,27 a 1,1 0 0 0 1,1 c 1.221,0 2,0.592 2,1 a 1,1 0 0 0 2,0 c 0,-1.683 -1.757,-3 -4,-3 a 1,1 0 0 0 -1,1 z"
           style="fill:url(#linear-gradient-4)"
           id="path6" /><path
           d="m 27,37 a 2,2 0 0 1 -2,-2 1,1 0 0 0 -2,0 4,4 0 0 0 4,4 1,1 0 0 0 0,-2 z"
           style="fill:url(#linear-gradient-5)"
           id="path7" /><path
           d="m 26,50 c -2.206,0 -4,2.243 -4,5 a 1,1 0 0 0 2,0 c 0,-1.626 0.916,-3 2,-3 a 1,1 0 0 0 0,-2 z"
           style="fill:url(#linear-gradient-6)"
           id="path8" /><path
           d="m 23,21 h 1 a 1,1 0 0 0 0,-2 h -1 a 1,1 0 0 0 0,2 z"
           style="fill:url(#linear-gradient-7)"
           id="path9" /><path
           d="m 20,26 h -1 a 1,1 0 0 0 0,2 h 1 a 1,1 0 0 0 0,-2 z"
           style="fill:url(#linear-gradient-8)"
           id="path10" /><path
           d="m 28,10 a 1,1 0 0 0 2,0 V 6 a 1,1 0 0 0 -2,0 z"
           style="fill:url(#linear-gradient-9)"
           id="path11" /><path
           d="m 29,40 a 1,1 0 0 0 -1,1 v 4 a 1,1 0 0 0 2,0 v -4 a 1,1 0 0 0 -1,-1 z"
           style="fill:url(#linear-gradient-10)"
           id="path12" /><path
           d="m 13,29 a 1,1 0 0 0 0,-2 2,2 0 0 1 -2,-2 1,1 0 0 0 -2,0 4,4 0 0 0 4,4 z"
           style="fill:url(#linear-gradient-11)"
           id="path13" /><path
           d="M 55,21 A 4,4 0 0 0 51.134,24.027 1.026,1.026 0 0 0 51,24 h -3 a 1,1 0 0 0 -0.6,0.2 L 41,29 v -7.586 l 2.908,-2.908 A 3.977,3.977 0 1 0 43,16 a 3.9,3.9 0 0 0 0.054,0.532 l -3.761,3.761 A 1,1 0 0 0 39,21 v 7.586 l -2,2 V 7 A 1,1 0 0 0 35,7 V 32.586 L 34.586,33 H 33 V 3.26 A 1,1 0 0 0 32.578,2.443 7.878,7.878 0 0 0 28,1 8,8 0 0 0 20.575,6.026 C 20.387,6.009 20.2,6 20,6 A 6.006,6.006 0 0 0 14,12 7.829,7.829 0 0 0 10.573,12.775 7.99,7.99 0 0 0 6.7,23.259 7.991,7.991 0 0 0 4.854,35.116 9.995,9.995 0 0 0 14.023,52.529 6.008,6.008 0 0 0 20,58 c 0.2,0 0.387,-0.009 0.575,-0.026 A 8,8 0 0 0 28,63 7.878,7.878 0 0 0 32.578,61.557 1,1 0 0 0 33,60.74 V 35 h 2 v 21 a 1,1 0 0 0 2,0 V 33.414 l 2,-2 V 47 a 1,1 0 0 0 0.293,0.707 l 3.761,3.761 A 3.9,3.9 0 0 0 43,52 4.05,4.05 0 1 0 43.908,49.494 L 41,46.586 V 36.414 l 3.293,3.293 A 1,1 0 0 0 45,40 h 2 a 1.026,1.026 0 0 0 0.134,-0.027 4,4 0 1 0 0,-1.946 A 1.026,1.026 0 0 0 47,38 H 45.414 L 41,33.586 V 31.5 L 48.333,26 H 51 A 1.026,1.026 0 0 0 51.134,25.973 3.994,3.994 0 1 0 55,21 Z m -8,-7 a 2,2 0 1 1 -2,2 2,2 0 0 1 2,-2 z M 31,60.2 A 5.9,5.9 0 0 1 28,61 5.993,5.993 0 0 1 22.216,56.58 1,1 0 0 0 20.984,55.88 3.723,3.723 0 0 1 20,56 4,4 0 0 1 16,52 3.609,3.609 0 0 1 16.077,51.223 1,1 0 0 0 14.644,50.123 8,8 0 0 1 6.91,36.13 1,1 0 0 0 7.057,34.516 5.991,5.991 0 0 1 8.457,24.567 1,1 0 0 0 8.885,23.132 5.984,5.984 0 0 1 11.431,14.58 5.847,5.847 0 0 1 14,14 a 4.888,4.888 0 0 1 0.931,0.082 1,1 0 0 0 1.165,-1.2 A 4.01,4.01 0 0 1 20,8 3.723,3.723 0 0 1 20.984,8.124 1,1 0 0 0 22.216,7.424 5.993,5.993 0 0 1 28,3 5.9,5.9 0 0 1 31,3.8 Z M 47,50 a 2,2 0 1 1 -2,2 2,2 0 0 1 2,-2 z m 4,-13 a 2,2 0 1 1 -2,2 2,2 0 0 1 2,-2 z m 4,-10 a 2,2 0 1 1 2,-2 2,2 0 0 1 -2,2 z"
           style="fill:url(#linear-gradient-12)"
           id="path14" /><path
           d="m 53,17 h 2 a 1,1 0 0 0 0,-2 h -2 a 1,1 0 0 0 0,2 z"
           style="fill:url(#linear-gradient-13)"
           id="path15" /><path
           d="m 54,51 h -1 a 1,1 0 0 0 0,2 h 1 a 1,1 0 0 0 0,-2 z"
           style="fill:url(#linear-gradient-14)"
           id="path16" /><path
           d="m 40,13 a 1,1 0 0 0 1,-1 V 6 a 1,1 0 0 0 -2,0 v 6 a 1,1 0 0 0 1,1 z"
           style="fill:url(#linear-gradient-15)"
           id="path17" /><path
           d="m 40,52 a 1,1 0 0 0 -1,1 v 4 a 1,1 0 0 0 2,0 v -4 a 1,1 0 0 0 -1,-1 z"
           style="fill:url(#linear-gradient-16)"
           id="path18" /></g><text
         xml:space="preserve"
         style="font-style:normal;font-variant:normal;font-weight:normal;font-stretch:normal;font-size:1.49655px;font-family:'Colonna MT';-inkscape-font-specification:'Colonna MT';fill:#000000;stroke-width:0.561206"
         x="15.445996"
         y="20.839697"
         id="text19"
         transform="scale(0.87215711,1.1465824)"><tspan
           id="tspan19"
           x="15.445996"
           y="20.839697"
           sodipodi:role="line"
           style="font-style:normal;font-variant:normal;font-weight:normal;font-stretch:normal;font-family:'Colonna MT';-inkscape-font-specification:'Colonna MT';fill:#6d7050;fill-opacity:1;stroke-width:0.561206">TECH BRIDGE</tspan></text></g></g></svg>
