<?xml version="1.0" encoding="UTF-8" standalone="no"?>
<!-- Created with Inkscape (http://www.inkscape.org/) -->

<svg
   width="62.608269mm"
   height="13.763669mm"
   viewBox="0 0 62.608269 13.763669"
   version="1.1"
   id="svg1"
   xml:space="preserve"
   sodipodi:docname="Logo1.svg"
   xmlns:inkscape="http://www.inkscape.org/namespaces/inkscape"
   xmlns:sodipodi="http://sodipodi.sourceforge.net/DTD/sodipodi-0.dtd"
   xmlns="http://www.w3.org/2000/svg"
   xmlns:svg="http://www.w3.org/2000/svg"><sodipodi:namedview
     id="namedview1"
     pagecolor="#ffffff"
     bordercolor="#000000"
     borderopacity="0.25"
     inkscape:showpageshadow="2"
     inkscape:pageopacity="0.0"
     inkscape:pagecheckerboard="0"
     inkscape:deskcolor="#d1d1d1"
     inkscape:document-units="mm" /><defs
     id="defs1" /><g
     inkscape:label="Capa 1"
     inkscape:groupmode="layer"
     id="layer1"
     transform="translate(-38.18017,-85.231386)"><path
       style="fill:#000000;stroke-width:0.443865"
       d="m 43.689728,98.265116 v -0.729917 l 0.407387,-0.03813 c 0.321798,-0.03017 0.489903,-0.147871 0.800147,-0.560428 l 0.392761,-0.522275 h -1.86634 -1.866338 v -3.625248 -3.625247 h 2.986121 c 2.802639,0 2.980712,-0.01327 2.898091,-0.215057 -0.160092,-0.391105 -0.188798,-1.381363 -0.04553,-1.570392 0.223451,-0.294817 0.831294,-0.207925 1.595123,0.228025 l 0.716279,0.408813 0.704249,-0.408813 c 0.790587,-0.458931 1.342867,-0.521614 1.621837,-0.184073 0.279054,0.337634 0.226773,0.777213 -0.198751,1.671121 l -0.384493,0.807715 0.384493,0.807715 c 0.211471,0.444244 0.384491,0.961022 0.384491,1.148402 0,0.491027 -0.338228,0.776756 -0.860913,0.727295 l -0.42974,-0.04066 -0.03091,1.935204 -0.03091,1.935203 H 49.07395 c -0.986063,0 -1.792841,0.03005 -1.792841,0.0668 0,0.03671 0.184875,0.285588 0.410835,0.553006 0.320649,0.37947 0.493107,0.486202 0.785615,0.486202 h 0.374779 v 0.737339 0.737339 h -2.581301 -2.581306 z m 4.71369,-0.06886 v -0.307224 h -2.132384 -2.132383 v 0.307224 0.307224 h 2.132383 2.132384 z m -0.897845,-0.762884 c 0,-0.04781 -0.187014,-0.296692 -0.415586,-0.552999 -0.571074,-0.640379 -1.036293,-0.643513 -1.627894,-0.01098 -0.234077,0.250279 -0.425596,0.499133 -0.425596,0.553006 0,0.05386 0.555541,0.09795 1.234537,0.09795 0.678996,0 1.234539,-0.03918 1.234539,-0.08699 z m 3.030228,-3.279335 c 0,-1.568091 -0.02879,-1.903737 -0.168346,-1.962372 -0.144861,-0.0609 -0.168346,0.177312 -0.168346,1.707305 v 1.778049 H 46.271034 42.34296 v -2.88791 -2.887907 h 2.81512 c 2.202187,0 2.80495,-0.03344 2.768409,-0.153615 -0.03543,-0.116537 -0.755477,-0.161519 -2.983466,-0.186376 l -2.936755,-0.03276 v 3.258615 3.258619 h 4.264766 4.264767 z m -0.785615,-0.618489 v -1.77279 l -0.737655,0.421003 c -0.756169,0.431577 -1.358223,0.534713 -1.596743,0.273545 -0.206489,-0.226101 -0.16024,-1.036352 0.08978,-1.57299 0.123453,-0.264969 0.22446,-0.51162 0.22446,-0.548107 0,-0.03652 -1.111084,-0.06634 -2.469076,-0.06634 h -2.469074 v 2.519241 2.519237 h 3.479151 3.479152 z m -5.435446,1.172065 c -0.107654,-0.190725 1.530394,-3.191457 1.702654,-3.119082 0.200125,0.08409 0.158342,0.191379 -0.718243,1.844294 -0.704424,1.32829 -0.848735,1.515171 -0.984411,1.274788 z m -0.603453,-1.022158 c -0.258765,-0.217772 -0.470482,-0.434761 -0.470482,-0.48221 0,-0.04745 0.205284,-0.264291 0.456186,-0.481883 0.355465,-0.308273 0.485557,-0.362787 0.589211,-0.246936 0.103052,0.115192 0.05951,0.213435 -0.19324,0.436032 l -0.326266,0.287339 0.326266,0.309389 c 0.230702,0.218766 0.291489,0.348172 0.207536,0.441794 -0.08446,0.09419 -0.254545,0.01814 -0.589211,-0.263525 z m 2.381171,0.252982 c -0.04815,-0.08531 0.04835,-0.267659 0.234339,-0.44283 l 0.316193,-0.29781 -0.326267,-0.287339 c -0.25275,-0.222597 -0.296292,-0.32084 -0.19324,-0.436032 0.103655,-0.115851 0.233746,-0.06133 0.589211,0.246936 0.250902,0.217592 0.456184,0.432447 0.456183,0.477465 -4e-6,0.07761 -0.577954,0.612721 -0.86203,0.798128 -0.07289,0.04756 -0.169368,0.02122 -0.214389,-0.05849 z m 2.619593,-2.005104 c 0.324067,-0.1652 0.589212,-0.346467 0.589212,-0.402814 0,-0.05633 -0.243493,-0.365045 -0.541095,-0.686014 l -0.541095,-0.583576 -0.300635,0.604824 c -0.289197,0.581811 -0.382895,1.116425 -0.225815,1.288419 0.134054,0.146786 0.419645,0.08492 1.019428,-0.220839 z m 3.098114,0.120603 c 0.07465,-0.213028 -0.164767,-1.011957 -0.442204,-1.475591 l -0.193452,-0.323283 -0.540491,0.582922 c -0.613355,0.661508 -0.594537,0.782148 0.18236,1.169118 0.547466,0.272688 0.90867,0.28971 0.993787,0.04683 z m -1.44271,-1.538286 0.552715,-0.614448 -0.552715,-0.614454 c -0.303994,-0.337942 -0.607017,-0.614442 -0.673384,-0.614442 -0.06637,0 -0.369391,0.2765 -0.673385,0.614442 l -0.552715,0.614454 0.552715,0.614448 c 0.303994,0.337942 0.607017,0.614442 0.673385,0.614442 0.06637,0 0.36939,-0.2765 0.673384,-0.614442 z m -1.2381,-2.390575 c -0.345356,-0.286784 -1.148237,-0.596266 -1.338975,-0.516118 -0.260525,0.109466 -0.207922,0.651755 0.128967,1.329521 l 0.301546,0.606656 0.56468,-0.618317 c 0.545645,-0.597463 0.557234,-0.624491 0.343782,-0.801742 z m 2.390253,0.7628 c 0.502581,-1.101896 0.302729,-1.521165 -0.550859,-1.155657 -0.268985,0.115179 -0.587723,0.291368 -0.708307,0.39153 -0.211403,0.175598 -0.199692,0.203841 0.327508,0.789928 0.300714,0.334297 0.577966,0.586692 0.616117,0.560873 0.03815,-0.02585 0.180146,-0.289821 0.315541,-0.586674 z m 4.291036,3.471119 c 0,-6.27106 0.01131,-6.651683 0.196403,-6.612655 0.184131,0.03881 0.196403,0.452035 0.196403,6.612655 0,6.160616 -0.01227,6.573821 -0.196403,6.612651 -0.185099,0.039 -0.196403,-0.3416 -0.196403,-6.612651 z m -17.597289,1.996956 0.03318,-0.829502 0.749625,-0.03615 c 0.746387,-0.03597 0.749781,-0.03467 0.785616,0.307223 0.03464,0.330459 0.06235,0.344735 0.737431,0.379944 0.523103,0.02734 0.701442,0.08196 0.701442,0.215066 0,0.137723 -0.166529,0.178466 -0.7295,0.178466 -0.703311,0 -0.729498,0.01098 -0.729498,0.307225 0,0.298635 -0.02211,0.307223 -0.790743,0.307223 H 38.18017 Z m 1.211607,0.03073 c 0,-0.409629 -0.01871,-0.430111 -0.392807,-0.430111 -0.374102,0 -0.392808,0.02049 -0.392808,0.430111 0,0.409632 0.01871,0.430114 0.392808,0.430114 0.374102,0 0.392807,-0.02049 0.392807,-0.430114 z m 29.121054,-0.314655 c -0.186728,-0.05947 -0.512628,-0.30375 -0.72423,-0.542801 -0.339768,-0.383844 -0.39002,-0.525632 -0.430012,-1.21333 -0.03211,-0.552309 0.0067,-0.888641 0.133328,-1.156886 0.566199,-1.198893 2.497299,-1.450752 3.415409,-0.445446 0.485491,0.531597 0.443343,0.833664 -0.1235,0.885025 -0.323551,0.0293 -0.504132,-0.03597 -0.765231,-0.276499 -0.907074,-0.835737 -1.946053,0.218228 -1.432279,1.452936 0.262181,0.630075 1.172146,0.703049 1.51991,0.121885 0.140063,-0.234065 0.272624,-0.292133 0.666936,-0.292133 0.454037,0 0.492133,0.02449 0.492133,0.316682 0,0.904748 -1.524169,1.541872 -2.752464,1.150567 z m 25.254716,-0.01043 c -0.74746,-0.302659 -1.178419,-1.002437 -1.178419,-1.913479 0,-1.254 0.803795,-2.047229 2.074506,-2.047229 0.987696,0 1.853567,0.59829 1.853567,1.280763 0,0.223159 -0.908118,0.126099 -1.203913,-0.128672 -0.15694,-0.135186 -0.449709,-0.245781 -0.650599,-0.245781 -0.545086,0 -0.850611,0.336258 -0.920249,1.01282 -0.0532,0.51681 -0.02546,0.609742 0.283065,0.947548 0.378257,0.414191 0.741364,0.473598 1.119959,0.183229 0.344652,-0.264333 0.311898,-0.423144 -0.08727,-0.423144 -0.310701,0 -0.336693,-0.03356 -0.336693,-0.435087 v -0.43508 l 0.925915,0.03566 0.925899,0.03566 -0.0098,0.523694 c -0.01248,0.667778 -0.214826,1.077391 -0.69164,1.400063 -0.445822,0.301709 -1.593788,0.415703 -2.10435,0.208968 z m -33.2764,-1.450096 v -1.481415 h -0.617268 -0.617269 v -0.494673 -0.49468 l 1.767634,0.03387 1.767632,0.03387 v 0.430115 0.430108 l -0.585698,0.03702 -0.5857,0.03702 -0.03157,1.437667 -0.03157,1.43766 -0.533095,0.03745 -0.533095,0.03745 z m 2.880589,1.386015 c -0.107339,-0.117536 -0.08929,-3.512418 0.01968,-3.700434 0.06861,-0.118387 0.490051,-0.148679 1.7098,-0.122891 l 1.618745,0.03424 0.03483,0.460833 0.03483,0.460833 H 65.6376 c -1.110377,0 -1.185198,0.01548 -1.185198,0.245782 0,0.225299 0.07482,0.245781 0.897847,0.245781 h 0.897846 v 0.491558 0.491557 h -0.897846 c -0.882882,0 -0.897847,0.005 -0.897847,0.307224 v 0.307224 h 1.178424 1.17842 v 0.430114 0.430116 h -1.664757 c -0.915613,0 -1.698421,-0.0369 -1.739573,-0.08194 z m 8.566944,-1.88431 v -1.966228 h 0.499682 0.499681 l 0.03344,0.768057 0.03344,0.768056 0.75207,0.03622 0.75207,0.03622 0.03355,-0.773542 0.03355,-0.773535 h 0.505036 0.505041 l 0.03091,1.935504 0.03091,1.935517 h -0.56401 -0.563999 v -0.742954 -0.742953 l -0.757558,0.03634 -0.75756,0.03634 -0.03365,0.706621 -0.03371,0.706614 h -0.499433 -0.499441 z m 4.538601,1.806975 c -0.0307,-0.0876 -0.04177,-0.958579 -0.02457,-1.935517 l 0.03129,-1.776244 0.841733,-0.03887 c 1.823938,-0.08423 2.618711,0.243974 2.618711,1.081376 0,0.257115 -0.07834,0.468236 -0.214062,0.576907 -0.205133,0.164239 -0.198892,0.184395 0.149642,0.483068 0.580964,0.497856 0.455964,1.26751 -0.258995,1.594613 -0.513873,0.235102 -3.062353,0.246991 -3.14377,0.01468 z m 2.609803,-0.903071 c 0.11497,-0.328052 -0.286307,-0.550525 -0.919602,-0.509844 -0.51921,0.03338 -0.563805,0.06133 -0.596666,0.373997 l -0.03553,0.337949 h 0.740481 c 0.583603,0 0.755478,-0.04282 0.811297,-0.202102 z M 78.817937,91.37821 c 0,-0.273471 -0.343895,-0.414 -0.85623,-0.34988 -0.234602,0.02937 -0.331946,0.115481 -0.358055,0.316811 -0.03349,0.258349 0.0054,0.276506 0.58921,0.276506 0.548249,0 0.625075,-0.02992 0.625075,-0.243437 z m 2.094974,2.619304 c -0.09352,-0.102402 -0.09954,-3.391223 -0.0067,-3.656162 0.05563,-0.158723 0.266645,-0.194253 1.150366,-0.193698 1.255589,0.0012 1.846493,0.149086 2.218884,0.556843 0.369584,0.404691 0.363118,1.061653 -0.01365,1.386158 l -0.279884,0.241068 0.392119,0.713019 c 0.524871,0.954413 0.512303,1.034697 -0.16192,1.034697 -0.553437,0 -0.554367,-4.63e-4 -0.869788,-0.645172 -0.306326,-0.625911 -0.331666,-0.646289 -0.84885,-0.682628 l -0.533096,-0.03745 v 0.682628 0.682627 h -0.486334 c -0.267483,0 -0.520006,-0.0369 -0.561155,-0.08193 z m 2.438751,-2.413791 c 0.188399,-0.33809 -0.200392,-0.596248 -0.830117,-0.551204 -0.481539,0.03449 -0.506691,0.05503 -0.540637,0.441892 l -0.03559,0.40577 0.641255,-0.03714 c 0.473363,-0.02739 0.67368,-0.09529 0.7651,-0.259355 z m 1.794292,2.318558 c -0.122389,-0.349232 0.01038,-0.62105 0.322614,-0.66051 l 0.30767,-0.03887 v -1.028239 -1.028238 l -0.308637,-0.03887 c -0.271139,-0.03412 -0.308632,-0.09113 -0.308632,-0.468995 v -0.430115 h 1.178425 1.178419 v 0.430115 c 0,0.377858 -0.03747,0.434834 -0.308632,0.468995 l -0.308637,0.03887 v 1.036401 1.0364 h 0.336691 c 0.309976,0 0.336693,0.03411 0.336693,0.430115 v 0.430109 h -1.181941 c -0.925806,0 -1.195401,-0.03843 -1.244033,-0.177152 z m 3.124569,-1.758359 0.03091,-1.935504 1.23454,0.0071 c 1.331804,0.0076 1.668506,0.119066 2.18341,0.722544 0.391283,0.458575 0.456386,1.672258 0.121101,2.257585 -0.376159,0.656667 -0.976762,0.877949 -2.391535,0.881101 l -1.209328,0.0031 z m 2.392854,0.773653 c 0.303063,-0.331853 0.357577,-0.841271 0.144758,-1.352719 -0.142422,-0.342261 -0.752001,-0.611264 -1.220984,-0.538803 -0.265795,0.04109 -0.276804,0.08101 -0.308073,1.117869 l -0.03242,1.075288 h 0.570622 c 0.456211,0 0.625864,-0.06046 0.846103,-0.301635 z m 6.672627,-0.801168 V 90.146971 H 99.0119 c 1.57733,0 1.68009,0.01443 1.74714,0.245775 0.0392,0.135175 0.0392,0.356376 0,0.491557 -0.0653,0.225089 -0.16981,0.245776 -1.2421,0.245776 -1.096041,0 -1.170864,0.01567 -1.170864,0.245781 0,0.225299 0.07487,0.245782 0.897849,0.245782 h 0.897845 v 0.491557 0.491557 h -0.905652 c -0.875002,0 -0.904434,0.0094 -0.869783,0.2765 0.03398,0.262075 0.09736,0.279715 1.214283,0.337949 l 1.178422,0.06145 v 0.368666 0.368673 l -1.71152,0.03387 -1.711516,0.03393 z M 38.269991,91.790699 c -0.04376,-0.04794 -0.07957,-0.437358 -0.07957,-0.865418 v -0.778299 h 0.785615 c 0.763169,0 0.785614,0.0088 0.785614,0.307218 0,0.296199 0.02619,0.307225 0.7295,0.307225 0.562971,0 0.7295,0.04071 0.7295,0.178472 0,0.132941 -0.177756,0.187806 -0.696802,0.215057 -0.638842,0.0335 -0.702241,0.06214 -0.762198,0.343809 -0.05963,0.280152 -0.124735,0.310389 -0.738745,0.343144 -0.370342,0.01974 -0.709155,-0.0031 -0.752917,-0.05121 z m 1.134024,-0.814217 c -0.03092,-0.351182 -0.07919,-0.404037 -0.399918,-0.437901 -0.349852,-0.03689 -0.36475,-0.0206 -0.36475,0.399391 0,0.420015 0.01634,0.437901 0.399918,0.437901 0.383583,0 0.398482,-0.01628 0.36475,-0.399391 z m 1.42383,-2.549959 C 40.536134,88.093122 40.437494,88.057856 39.796771,88.057856 H 39.08827 V 87.136172 86.214506 H 39.93 40.77173 v 0.837237 c 0,0.767618 0.02767,0.866263 0.332702,1.186258 0.182985,0.191965 0.306265,0.395862 0.273953,0.453102 -0.09882,0.175085 -0.214494,0.119486 -0.55054,-0.26458 z M 40.435038,87.136172 V 86.583173 H 39.93 39.424962 v 0.552999 0.553012 H 39.93 40.435038 Z m 3.366921,0.614455 c 0,-0.770106 -0.01007,-0.798782 -0.280577,-0.798782 -0.27256,0 -0.280577,-0.02456 -0.280577,-0.860229 v -0.86023 h 0.785615 0.785615 v 0.852068 c 0,0.838174 -0.0051,0.852696 -0.308634,0.890947 -0.295785,0.03727 -0.310025,0.07087 -0.342047,0.80695 -0.02491,0.572785 -0.07486,0.768063 -0.196404,0.768063 -0.125784,0 -0.162991,-0.182347 -0.162991,-0.798787 z m 0.561154,-1.597569 c 0,-0.409632 -0.01871,-0.430109 -0.392808,-0.430109 -0.374102,0 -0.392807,0.02049 -0.392807,0.430109 0,0.409632 0.01871,0.430115 0.392807,0.430115 0.374102,0 0.392808,-0.02049 0.392808,-0.430115 z"
       id="path1"
       inkscape:export-filename="Logo.png"
       inkscape:export-xdpi="96"
       inkscape:export-ydpi="96" /></g></svg>
